<?xml version="1.0" encoding="UTF-8" standalone="no"?>
<svg
   xmlns:dc="http://purl.org/dc/elements/1.1/"
   xmlns:cc="http://creativecommons.org/ns#"
   xmlns:rdf="http://www.w3.org/1999/02/22-rdf-syntax-ns#"
   xmlns:svg="http://www.w3.org/2000/svg"
   xmlns="http://www.w3.org/2000/svg"
   viewBox="0 0 757.33331 517.33331"
   height="517.33331"
   width="757.33331"
   xml:space="preserve"
   id="svg2"
   version="1.1"><metadata
     id="metadata8"><rdf:RDF><cc:Work
         rdf:about=""><dc:format>image/svg+xml</dc:format><dc:type
           rdf:resource="http://purl.org/dc/dcmitype/StillImage" /></cc:Work></rdf:RDF></metadata><defs
     id="defs6"><clipPath
       id="clipPath24"
       clipPathUnits="userSpaceOnUse"><path
         style="clip-rule:evenodd"
         id="path22"
         d="m 3806.58,1924.71 c 109.06,116.23 108.86,269.81 -53.68,434.76 l -536.59,544.54 -70.92,-70.86 512.82,-538.92 c 158.08,-166.13 180.79,-210.2 148.37,-369.52 z" /></clipPath><linearGradient
       id="linearGradient30"
       spreadMethod="pad"
       gradientTransform="matrix(0.38388,-9.99263,9.99263,0.38388,3528.71,2381.46)"
       gradientUnits="userSpaceOnUse"
       y2="0"
       x2="48.319302"
       y1="0"
       x1="-48.319302"><stop
         id="stop26"
         offset="0"
         style="stop-opacity:1;stop-color:#ec3237" /><stop
         id="stop28"
         offset="1"
         style="stop-opacity:1;stop-color:#fce4e5" /></linearGradient><clipPath
       id="clipPath40"
       clipPathUnits="userSpaceOnUse"><path
         style="clip-rule:evenodd"
         id="path38"
         d="m 3916.64,1750.06 c 113.06,0 204.74,-65.65 204.74,-146.59 0,-80.95 -91.68,-146.59 -204.74,-146.59 -113.05,0 -204.74,65.64 -204.74,146.59 0,80.94 91.69,146.59 204.74,146.59 z" /></clipPath><linearGradient
       id="linearGradient46"
       gradientTransform="matrix(0,10,-10,0,3916.64,1603.47)"
       gradientUnits="userSpaceOnUse"
       y2="0"
       x2="14.6592"
       y1="0"
       x1="-14.6592"><stop
         id="stop42"
         offset="0"
         style="stop-opacity:1;stop-color:#ec3237" /><stop
         id="stop44"
         offset="1"
         style="stop-opacity:1;stop-color:#fce4e5" /></linearGradient><clipPath
       id="clipPath58"
       clipPathUnits="userSpaceOnUse"><path
         style="clip-rule:evenodd"
         id="path56"
         d="m 1850.61,3801.86 c 144.67,0 261.98,-84 261.98,-187.58 0,-103.58 -117.31,-187.57 -261.98,-187.57 -144.66,0 -261.98,83.99 -261.98,187.57 0,103.58 117.32,187.58 261.98,187.58 z" /></clipPath><linearGradient
       id="linearGradient64"
       gradientTransform="matrix(0,10,-10,0,1850.61,3614.28)"
       gradientUnits="userSpaceOnUse"
       y2="0"
       x2="18.757999"
       y1="0"
       x1="-18.757999"><stop
         id="stop60"
         offset="0"
         style="stop-opacity:1;stop-color:#00a650" /><stop
         id="stop62"
         offset="1"
         style="stop-opacity:1;stop-color:#c4e6d9" /></linearGradient><clipPath
       id="clipPath74"
       clipPathUnits="userSpaceOnUse"><path
         style="clip-rule:evenodd"
         id="path72"
         d="m 2167.52,3498.02 c 205.14,70.79 395.82,29.97 572.03,-122.47 l -51.16,-49.6 c -158.71,157.53 -333.23,208.82 -520.87,172.07 z" /></clipPath><linearGradient
       id="linearGradient80"
       gradientTransform="matrix(0,10,-10,0,2453.53,3428.81)"
       gradientUnits="userSpaceOnUse"
       y2="0"
       x2="10.2873"
       y1="0"
       x1="-10.2873"><stop
         id="stop76"
         offset="0"
         style="stop-opacity:1;stop-color:#00a650" /><stop
         id="stop78"
         offset="1"
         style="stop-opacity:1;stop-color:#c4e6d9" /></linearGradient><clipPath
       id="clipPath90"
       clipPathUnits="userSpaceOnUse"><path
         style="clip-rule:evenodd"
         id="path88"
         d="m 2087.21,3061.8 c -108.57,-116.7 -89.14,-279.05 75.89,-443.52 l 497.52,-495.81 70.62,71.16 -485.95,485.2 c -162.29,162.03 -194.9,233.58 -158.08,382.97 z" /></clipPath><linearGradient
       id="linearGradient96"
       gradientTransform="matrix(0,10,-10,0,2375.35,2592.13)"
       gradientUnits="userSpaceOnUse"
       y2="0"
       x2="46.966599"
       y1="0"
       x1="-46.966599"><stop
         id="stop92"
         offset="0"
         style="stop-opacity:1;stop-color:#00a650" /><stop
         id="stop94"
         offset="1"
         style="stop-opacity:1;stop-color:#c4e6d9" /></linearGradient><clipPath
       id="clipPath106"
       clipPathUnits="userSpaceOnUse"><path
         style="clip-rule:evenodd"
         id="path104"
         d="m 3844.25,3816.13 c 144.67,0 261.98,-84 261.98,-187.58 0,-103.57 -117.31,-187.57 -261.98,-187.57 -144.66,0 -261.98,84 -261.98,187.57 0,103.58 117.32,187.58 261.98,187.58 z" /></clipPath><linearGradient
       id="linearGradient112"
       gradientTransform="matrix(0,-10,10,0,3844.22,3628.55)"
       gradientUnits="userSpaceOnUse"
       y2="0"
       x2="18.7687"
       y1="0"
       x1="-18.7687"><stop
         id="stop108"
         offset="0"
         style="stop-opacity:1;stop-color:#fde5d6" /><stop
         id="stop110"
         offset="1"
         style="stop-opacity:1;stop-color:#f58634" /></linearGradient><clipPath
       id="clipPath122"
       clipPathUnits="userSpaceOnUse"><path
         style="clip-rule:evenodd"
         id="path120"
         d="m 3403.54,3445.03 c -52.08,50.98 -117.24,71.3 -174.56,74.15 -86.53,4.3 -174.59,-42.28 -280.04,-144.52 l -509.9,-494.37 71.23,-75.41 495.66,479.16 c 168.34,162.74 245.09,206.94 397.61,160.99 z" /></clipPath><linearGradient
       id="linearGradient128"
       gradientTransform="matrix(-10,0,0,-10,2915.71,3157.6)"
       gradientUnits="userSpaceOnUse"
       y2="0"
       x2="48.783401"
       y1="0"
       x1="-48.783401"><stop
         id="stop124"
         offset="0"
         style="stop-opacity:1;stop-color:#fde5d6" /><stop
         id="stop126"
         offset="1"
         style="stop-opacity:1;stop-color:#f58634" /></linearGradient><clipPath
       id="clipPath140"
       clipPathUnits="userSpaceOnUse"><path
         style="clip-rule:evenodd"
         id="path138"
         d="m 1772.11,1754.39 c 114.27,0 206.94,-66.35 206.94,-148.18 0,-81.81 -92.67,-148.16 -206.94,-148.16 -114.29,0 -206.95,66.35 -206.95,148.16 0,81.83 92.66,148.18 206.95,148.18 z" /></clipPath><linearGradient
       id="linearGradient146"
       spreadMethod="pad"
       gradientTransform="matrix(1.04702,9.94504,-9.94504,1.04702,1772.11,1606.22)"
       gradientUnits="userSpaceOnUse"
       y2="0"
       x2="20.941"
       y1="0"
       x1="-20.941"><stop
         id="stop142"
         offset="0"
         style="stop-opacity:1;stop-color:#3e3f98" /><stop
         id="stop144"
         offset="1"
         style="stop-opacity:1;stop-color:#dcdceb" /></linearGradient><clipPath
       id="clipPath156"
       clipPathUnits="userSpaceOnUse"><path
         style="clip-rule:evenodd"
         id="path154"
         d="m 2236.63,1735.79 c 57.79,-58.7 131,-74.59 196.21,-70.85 81.23,4.67 161.54,54.61 254.36,144.52 l 510.47,494.46 -71.24,70.54 -498.08,-477.53 c -148.72,-142.59 -226.24,-203.16 -391.72,-161.14 z" /></clipPath><linearGradient
       id="linearGradient162"
       gradientTransform="matrix(-10,0,0,-10,2717.15,2019.45)"
       gradientUnits="userSpaceOnUse"
       y2="0"
       x2="48.0522"
       y1="0"
       x1="-48.0522"><stop
         id="stop158"
         offset="0"
         style="stop-opacity:1;stop-color:#3e3f98" /><stop
         id="stop160"
         offset="1"
         style="stop-opacity:1;stop-color:#dcdceb" /></linearGradient></defs><g
     transform="matrix(1.3333333,0,0,-1.3333333,0,517.33333)"
     id="g10"><g
       transform="scale(0.1)"
       id="g12"><path
         id="path14"
         style="fill:#f58634;fill-opacity:1;fill-rule:evenodd;stroke:none"
         d="m 3719.98,2513.64 -266.17,270.93 c 83.42,59.36 107.2,203.19 71.47,269.71 -18.23,33.94 -70.66,90.41 -105.06,113.94 -59.83,40.92 -191.18,40.73 -259.48,-27.08 l -628.45,-623.77 -265.98,266.52 639.05,636.54 c 129.03,128.52 357.6,182.46 570.68,115.61 19.86,99.37 64.25,160.38 117.11,208.56 176.27,160.65 434.65,88.79 541.89,-52.14 91.6,-120.37 94.1,-287.35 17.45,-419.56 -49.13,-84.75 -138.63,-145.69 -259.41,-166.16 59.18,-230.72 -6.76,-430.24 -173.1,-593.1" /><path
         id="path16"
         style="fill:#ec3237;fill-opacity:1;fill-rule:evenodd;stroke:none"
         d="m 2856.26,1591.3 273.97,270.12 c 74.06,-73.91 201.87,-66.88 262.73,-27.27 32.49,21.13 58.72,56.01 83.8,87.05 45.56,56.38 32.08,205.92 -35.89,274.06 l -582.25,583.69 265.3,269.45 648.08,-644.5 c 112.35,-111.73 191.77,-356.27 131.5,-546.39 99.51,-19.14 165.87,-63.08 214.43,-115.59 161.93,-175.09 91.96,-440.69 -48.19,-548.96 -119.69,-92.47 -284.83,-91.66 -417.6,-15.98 -85.1,48.52 -151.7,116.27 -173.05,236.89 -230.29,-60.86 -463.78,0.57 -622.83,177.43" /><g
         id="g18"><g
           clip-path="url(#clipPath24)"
           id="g20"><path
             id="path32"
             style="fill:url(#linearGradient30);fill-opacity:1;fill-rule:nonzero;stroke:none"
             d="m 3806.58,1924.71 c 109.06,116.23 108.86,269.81 -53.68,434.76 l -536.59,544.54 -70.92,-70.86 512.82,-538.92 c 158.08,-166.13 180.79,-210.2 148.37,-369.52" /></g></g><g
         id="g34"><g
           clip-path="url(#clipPath40)"
           id="g36"><path
             id="path48"
             style="fill:url(#linearGradient46);fill-opacity:1;fill-rule:nonzero;stroke:none"
             d="m 3916.64,1750.06 c 113.06,0 204.74,-65.65 204.74,-146.59 0,-80.95 -91.68,-146.59 -204.74,-146.59 -113.05,0 -204.74,65.64 -204.74,146.59 0,80.94 91.69,146.59 204.74,146.59" /></g></g><path
         id="path50"
         style="fill:#00a650;fill-opacity:1;fill-rule:evenodd;stroke:none"
         d="m 2798.38,3375.86 -268.77,-268.34 c -59.27,83.48 -206.21,108.86 -273.29,74.19 -34.21,-17.68 -89,-69.89 -112.81,-103.75 -41.7,-59.29 -38.77,-193.82 29.23,-261.94 l 623.14,-624.21 -266.8,-268.14 -639.52,639.7 c -128.76,128.79 -184.54,360.22 -117.47,573.23 -99.36,19.96 -157.89,61.97 -206.01,114.89 -160.47,176.43 -101.72,429.88 39.31,536.97 67.76,51.46 157.36,86.09 243.1,82.25 66.69,-2.98 136.92,-29.21 194.72,-62.8 84.7,-49.21 138.25,-137.56 158.6,-258.36 230.78,58.95 433.87,-7.19 596.57,-173.69" /><g
         id="g52"><g
           clip-path="url(#clipPath58)"
           id="g54"><path
             id="path66"
             style="fill:url(#linearGradient64);fill-opacity:1;fill-rule:nonzero;stroke:none"
             d="m 1850.61,3801.86 c 144.67,0 261.98,-84 261.98,-187.58 0,-103.58 -117.31,-187.57 -261.98,-187.57 -144.66,0 -261.98,83.99 -261.98,187.57 0,103.58 117.32,187.58 261.98,187.58" /></g></g><g
         id="g68"><g
           clip-path="url(#clipPath74)"
           id="g70"><path
             id="path82"
             style="fill:url(#linearGradient80);fill-opacity:1;fill-rule:nonzero;stroke:none"
             d="m 2167.52,3498.02 c 205.14,70.79 395.82,29.97 572.03,-122.47 l -51.16,-49.6 c -158.71,157.53 -333.23,208.82 -520.87,172.07" /></g></g><g
         id="g84"><g
           clip-path="url(#clipPath90)"
           id="g86"><path
             id="path98"
             style="fill:url(#linearGradient96);fill-opacity:1;fill-rule:nonzero;stroke:none"
             d="m 2087.21,3061.8 c -108.57,-116.7 -89.14,-279.05 75.89,-443.52 l 497.52,-495.81 70.62,71.16 -485.95,485.2 c -162.29,162.03 -194.9,233.58 -158.08,382.97" /></g></g><g
         id="g100"><g
           clip-path="url(#clipPath106)"
           id="g102"><path
             id="path114"
             style="fill:url(#linearGradient112);fill-opacity:1;fill-rule:nonzero;stroke:none"
             d="m 3844.25,3816.13 c 144.67,0 261.98,-84 261.98,-187.58 0,-103.57 -117.31,-187.57 -261.98,-187.57 -144.66,0 -261.98,84 -261.98,187.57 0,103.58 117.32,187.58 261.98,187.58" /></g></g><g
         id="g116"><g
           clip-path="url(#clipPath122)"
           id="g118"><path
             id="path130"
             style="fill:url(#linearGradient128);fill-opacity:1;fill-rule:nonzero;stroke:none"
             d="m 3403.54,3445.03 c -52.08,50.98 -117.24,71.3 -174.56,74.15 -86.53,4.3 -174.59,-42.28 -280.04,-144.52 l -509.9,-494.37 71.23,-75.41 495.66,479.16 c 168.34,162.74 245.09,206.94 397.61,160.99" /></g></g><path
         id="path132"
         style="fill:#3e3f98;fill-opacity:1;fill-rule:evenodd;stroke:none"
         d="m 1935.79,2454.91 269.09,-267.39 c -70.67,-91.93 -69.4,-203.6 -33.83,-258.36 21.11,-32.5 71.27,-73.61 102.56,-98.37 52.48,-41.5 192.85,-34.4 283.71,57.25 l 562.6,567.44 270.85,-268.96 -647.56,-645.04 c -125.01,-124.52 -365.64,-186.03 -539.47,-132.56 -19.86,-99.37 -66.83,-172.53 -122.46,-217.48 -170.25,-137.56 -374.32,-103.87 -491.96,3.1 -114.32,103.96 -167.79,316.29 -67.06,468.12 54.15,81.63 129.39,144.79 241.25,168.83 -75.23,252.13 5.95,460.56 172.28,623.42" /><g
         id="g134"><g
           clip-path="url(#clipPath140)"
           id="g136"><path
             id="path148"
             style="fill:url(#linearGradient146);fill-opacity:1;fill-rule:nonzero;stroke:none"
             d="m 1772.11,1754.39 c 114.27,0 206.94,-66.35 206.94,-148.18 0,-81.81 -92.67,-148.16 -206.94,-148.16 -114.29,0 -206.95,66.35 -206.95,148.16 0,81.83 92.66,148.18 206.95,148.18" /></g></g><g
         id="g150"><g
           clip-path="url(#clipPath156)"
           id="g152"><path
             id="path164"
             style="fill:url(#linearGradient162);fill-opacity:1;fill-rule:nonzero;stroke:none"
             d="m 2236.63,1735.79 c 57.79,-58.7 131,-74.59 196.21,-70.85 81.23,4.67 161.54,54.61 254.36,144.52 l 510.47,494.46 -71.24,70.54 -498.08,-477.53 c -148.72,-142.59 -226.24,-203.16 -391.72,-161.14" /></g></g><path
         id="path166"
         style="fill:#393536;fill-opacity:1;fill-rule:evenodd;stroke:none"
         d="m 1171.46,657.035 c 255.63,0 462.93,-145.34 462.93,-324.562 0,-179.223 -207.3,-324.56284 -462.93,-324.56284 -255.624,0 -462.929,145.33984 -462.929,324.56284 0,179.222 207.305,324.562 462.929,324.562 z m 0.64,-84.168 c 193.3,0 350.07,-107.648 350.07,-240.394 0,-132.746 -156.77,-240.3949 -350.07,-240.3949 -193.307,0 -350.069,107.6489 -350.069,240.3949 0,132.746 156.762,240.394 350.069,240.394 z m 968.9,84.168 c 255.63,0 462.94,-145.34 462.94,-324.562 C 2603.94,153.25 2396.63,7.91016 2141,7.91016 c -255.62,0 -462.93,145.33984 -462.93,324.56284 0,179.222 207.31,324.562 462.93,324.562 z m 0.64,-84.168 c 193.31,0 350.07,-107.648 350.07,-240.394 0,-132.746 -156.76,-240.3949 -350.07,-240.3949 -193.3,0 -350.07,107.6489 -350.07,240.3949 0,132.746 156.77,240.394 350.07,240.394 z M 551.457,916.852 H 661.344 V 336.539 C 660.762,186.148 616.332,81.9883 477.234,36.4219 375.734,3.17188 226.137,2.14844 1.73047,56.5 L 46.0898,152.609 C 173.352,114.652 290.879,93.7813 382.492,110.984 c 101.985,19.157 168.965,76.868 168.965,177.5 z M 2752.75,568.512 c 70.3,67.468 154.02,86.051 238.07,86.832 89.25,0.828 214.25,-30.653 292.88,-106.383 93.44,101.102 202.68,102.742 277.27,103.219 171.06,1.097 330.08,-96.215 330.08,-219.696 V 20.293 H 3777.4 v 393.594 c 0,100.054 -105.56,154.554 -217.26,155.386 -99.88,0.739 -201.54,-55.718 -230.97,-129.566 V 20.293 H 3215.53 V 440.75 c 0,83.039 -121.02,126.977 -237.85,122.668 -107.34,-3.961 -197.32,-88.762 -215.14,-174.648 V 20.293 h -113.65 v 629.77 h 103.9 z m 1228,351.715 h 106.36 V 20.293 h -106.36 z m 992.02,-270.164 h 106.36 V 20.293 H 4972.77 V 139.516 C 4889.13,66.8867 4759.99,20.293 4615.08,20.293 c -252.11,0 -456.56,141.016 -456.56,314.887 0,173.875 204.45,314.883 456.56,314.883 144.91,0 274.05,-46.59 357.69,-119.219 z m 0,-383.258 v 136.75 c -44.45,96.758 -180.75,167.222 -341.99,167.222 -197.3,0 -357.3,-105.504 -357.3,-235.597 0,-130.094 160,-235.598 357.3,-235.598 161.24,0 297.54,70.469 341.99,167.223 z m 273.61,673.172 h 107.87 V 225.883 h -107.87 z m 54.69,-793.102 c 46.14,0 83.57,-28.344 83.57,-63.293 0,-34.9453 -37.43,-63.289 -83.57,-63.289 -46.14,0 -83.56,28.3437 -83.56,63.289 0,34.949 37.42,63.293 83.56,63.293 z m 245.48,692.316 v 113.438 h 31.08 l 31.98,-90.59 30.92,90.59 h 30.49 V 839.191 h -19.3 v 95.196 l -32.61,-95.196 h -19.1 l -34.05,96.575 v -96.575 z m -83.08,0 v 96.575 h -42.37 v 16.863 h 106.81 v -16.863 h -42.64 v -96.575 h -21.8" /></g></g></svg>