<?xml version="1.0" encoding="UTF-8" standalone="no"?>
<svg
   xmlns:dc="http://purl.org/dc/elements/1.1/"
   xmlns:cc="http://creativecommons.org/ns#"
   xmlns:rdf="http://www.w3.org/1999/02/22-rdf-syntax-ns#"
   xmlns:svg="http://www.w3.org/2000/svg"
   xmlns="http://www.w3.org/2000/svg"
   viewBox="0 0 268.54666 166.66667"
   height="166.66667"
   width="268.54666"
   xml:space="preserve"
   id="svg2"
   version="1.1"><metadata
     id="metadata8"><rdf:RDF><cc:Work
         rdf:about=""><dc:format>image/svg+xml</dc:format><dc:type
           rdf:resource="http://purl.org/dc/dcmitype/StillImage" /></cc:Work></rdf:RDF></metadata><defs
     id="defs6" /><g
     transform="matrix(1.3333333,0,0,-1.3333333,0,166.66667)"
     id="g10"><g
       transform="scale(0.1)"
       id="g12"><path
         id="path14"
         style="fill:#1b73a0;fill-opacity:1;fill-rule:nonzero;stroke:none"
         d="m 908.477,27.8281 h -4.063 c -20.867,0 -23.769,5.211 -23.769,31.8828 V 185.512 c 0,0 25.507,0 27.832,0 60.293,0 71.308,-44.051 71.308,-78.262 0,-35.3594 -11.015,-79.4219 -71.308,-79.4219 z M 663.82,108.41 v 77.102 h 23.77 c 26.082,0 37.683,-17.973 37.683,-38.832 0,-20.301 -11.601,-38.27 -37.683,-38.27 z m 242.918,94.512 H 802.961 v -11.024 c 32.461,0 37.676,-6.949 37.676,-48.128 V 69.5703 c 0,-41.1719 -5.215,-48.7109 -37.676,-48.7109 -24.926,3.4804 -41.738,16.8203 -64.934,42.332 l -26.668,28.9805 c 35.946,6.3867 55.079,29.0001 55.079,54.5081 0,31.879 -27.247,56.242 -78.274,56.242 H 586.133 v -11.024 c 32.461,0 37.676,-6.949 37.676,-48.128 V 69.5703 c 0,-41.1719 -5.215,-48.7109 -37.676,-48.7109 V 9.85938 H 701.504 V 20.8594 c -32.473,0 -37.684,7.539 -37.684,48.7109 v 20.8594 h 9.852 L 738.027,9.85938 h 168.711 c 82.91,0 118.852,44.05082 118.852,96.81262 0,52.758 -35.942,96.25 -118.852,96.25" /><path
         id="path16"
         style="fill:#1b73a0;fill-opacity:1;fill-rule:nonzero;stroke:none"
         d="m 263.215,86.9609 40,118.2771 c 11.601,34.203 6.387,44.051 -30.723,44.051 v 11.606 h 108.996 v -11.606 c -36.523,0 -45.218,-8.687 -59.715,-51.008 L 255.676,0 h -7.531 L 189.004,181.469 128.711,0 h -7.539 L 56.8203,198.281 C 42.9063,240.602 33.6289,249.289 0,249.289 v 11.606 h 128.711 v -11.606 c -34.2071,0 -43.4844,-8.109 -31.3087,-44.051 L 136.242,86.9609 194.801,260.895 H 205.82 L 263.215,86.9609" /><path
         id="path18"
         style="fill:#1b73a0;fill-opacity:1;fill-rule:nonzero;stroke:none"
         d="m 460.324,192.48 c -53.336,0 -71.89,-48.121 -71.89,-85.808 0,-38.2736 18.554,-85.8126 71.89,-85.8126 53.918,0 72.469,47.539 72.469,85.8126 0,37.687 -18.551,85.808 -72.469,85.808 z m 0,-190.15969 c -63.769,0 -115.953,46.94919 -115.953,104.35169 0,56.816 52.184,103.777 115.953,103.777 63.774,0 115.957,-46.961 115.957,-103.777 0,-57.4025 -52.183,-104.35169 -115.957,-104.35169" /><path
         id="path20"
         style="fill:#3f3c3c;fill-opacity:1;fill-rule:nonzero;stroke:none"
         d="m 1156.03,240.02 h -33.05 V 139.148 h 33.05 c 32.47,0 47.53,22.602 47.53,49.84 0,27.832 -15.06,51.032 -47.53,51.032 z M 1168.78,21.4492 V 9.85938 H 1036.02 V 21.4492 c 38.84,0 45.8,9.8516 45.8,67.8321 v 92.7577 c 0,57.981 -6.96,67.25 -45.8,67.25 v 11.606 h 120.01 c 59.71,0 92.76,-30.735 92.76,-71.907 0,-40 -33.05,-71.308 -92.76,-71.308 h -33.05 V 89.2813 c 0,-57.9805 6.95,-67.8321 45.8,-67.8321" /><path
         id="path22"
         style="fill:#3f3c3c;fill-opacity:1;fill-rule:nonzero;stroke:none"
         d="m 1339.81,108.41 v 77.102 h 23.77 c 26.09,0 37.69,-17.973 37.69,-38.832 0,-20.301 -11.6,-38.27 -37.69,-38.27 z m 307.26,-44.0584 -2.89,-10.4414 c -5.22,-19.1289 -11.6,-26.0821 -52.76,-26.0821 h -8.12 c -30.15,0 -35.36,6.9532 -35.36,48.1133 v 26.6676 c 45.21,0 48.7,-4.0504 48.7,-34.2106 h 11.02 v 86.3906 h -11.02 c 0,-30.148 -3.49,-34.199 -48.7,-34.199 v 64.922 h 31.88 c 41.17,0 47.54,-6.953 52.76,-26.082 l 2.9,-11.008 h 9.28 l -4.06,54.5 h -170.46 v -11.024 c 32.47,0 37.69,-6.949 37.69,-48.128 V 69.5703 c 0,-37.6601 -4.43,-47.1406 -30.03,-48.5 -24.33,3.7188 -41.03,16.9883 -63.89,42.1211 l -26.67,28.9805 c 35.95,6.3867 55.09,29.0001 55.09,54.5081 0,31.879 -27.24,56.242 -78.27,56.242 h -102.04 v -11.024 c 32.47,0 37.68,-6.949 37.68,-48.128 V 69.5703 c 0,-41.1719 -5.21,-48.7109 -37.68,-48.7109 V 9.85938 h 115.37 V 20.8594 c -32.46,0 -37.68,7.539 -37.68,48.7109 v 20.8594 h 9.86 l 64.34,-80.57032 h 238.28 l 3.48,54.49222 h -8.7" /><path
         id="path24"
         style="fill:#3f3c3c;fill-opacity:1;fill-rule:nonzero;stroke:none"
         d="m 1764.77,2.32031 c -23.2,0 -43.49,12.16799 -52.18,19.71099 -2.9,-2.9102 -8.12,-11.6016 -9.28,-19.71099 h -11.02 V 82.3203 h 11.6 c 4.64,-38.2617 31.31,-60.8711 65.51,-60.8711 18.55,0 33.63,10.4297 33.63,27.8203 0,15.0821 -13.34,26.6719 -37.1,37.6914 l -33.05,15.6481 c -23.19,11.032 -40.59,30.153 -40.59,55.661 0,27.832 26.09,51.601 62.05,51.601 19.13,0 35.35,-6.949 45.21,-15.082 2.9,2.32 5.79,8.711 7.54,15.66 h 11.02 v -68.41 h -12.18 c -4.06,27.25 -19.13,49.859 -49.86,49.859 -16.24,0 -31.31,-9.277 -31.31,-23.769 0,-15.078 12.17,-23.18 40.01,-35.949 l 31.88,-15.649 c 27.83,-13.332 38.85,-34.7927 38.85,-52.1794 0,-36.5235 -31.9,-62.03129 -70.73,-62.03129" /><path
         id="path26"
         style="fill:#3f3c3c;fill-opacity:1;fill-rule:nonzero;stroke:none"
         d="m 1943.33,2.32031 c -23.19,0 -43.5,12.16799 -52.19,19.71099 -2.9,-2.9102 -8.11,-11.6016 -9.26,-19.71099 h -11.03 V 82.3203 h 11.6 c 4.64,-38.2617 31.3,-60.8711 65.51,-60.8711 18.55,0 33.63,10.4297 33.63,27.8203 0,15.0821 -13.34,26.6719 -37.11,37.6914 l -33.04,15.6481 c -23.2,11.032 -40.59,30.153 -40.59,55.661 0,27.832 26.09,51.601 62.04,51.601 19.13,0 35.36,-6.949 45.23,-15.082 2.89,2.32 5.79,8.711 7.52,15.66 h 11.02 v -68.41 h -12.18 c -4.05,27.25 -19.13,49.859 -49.85,49.859 -16.23,0 -31.31,-9.277 -31.31,-23.769 0,-15.078 12.17,-23.18 40.01,-35.949 l 31.87,-15.649 c 27.84,-13.332 38.85,-34.7927 38.85,-52.1794 0,-36.5235 -31.88,-62.03129 -70.72,-62.03129" /><path
         id="path28"
         style="fill:#3f3c3c;fill-opacity:1;fill-rule:nonzero;stroke:none"
         d="m 630.469,813.348 c 0,-148.262 86.164,-276.391 211.109,-337.114 L 662.902,965.785 C 642.125,919.203 630.469,867.652 630.469,813.348" /><path
         id="path30"
         style="fill:#3f3c3c;fill-opacity:1;fill-rule:nonzero;stroke:none"
         d="m 1257.9,832.246 c 0,46.293 -16.63,78.356 -30.89,103.301 -18.98,30.855 -36.79,56.988 -36.79,87.843 0,34.43 26.12,66.48 62.9,66.48 1.66,0 3.24,-0.21 4.86,-0.3 -66.64,61.06 -155.42,98.34 -252.94,98.34 -130.86,0 -245.981,-67.15 -312.966,-168.83 8.801,-0.27 17.082,-0.45 24.114,-0.45 39.167,0 99.824,4.76 99.824,4.76 20.187,1.18 22.574,-28.472 2.394,-30.855 0,0 -20.297,-2.39 -42.863,-3.574 L 911.945,583.227 993.922,829.07 935.559,988.961 c -20.168,1.184 -39.286,3.574 -39.286,3.574 -20.179,1.18 -17.816,32.035 2.375,30.855 0,0 61.848,-4.76 98.657,-4.76 39.165,0 99.825,4.76 99.825,4.76 20.2,1.18 22.58,-28.472 2.4,-30.855 0,0 -20.33,-2.39 -42.87,-3.574 l 135.36,-402.648 37.36,124.839 c 16.2,51.825 28.52,89.028 28.52,121.094" /><path
         id="path32"
         style="fill:#3f3c3c;fill-opacity:1;fill-rule:nonzero;stroke:none"
         d="M 1011.62,780.582 899.23,454.008 c 33.551,-9.863 69.043,-15.254 105.81,-15.254 43.61,0 85.45,7.539 124.38,21.23 -1,1.602 -1.91,3.301 -2.66,5.157 l -115.14,315.441" /><path
         id="path34"
         style="fill:#3f3c3c;fill-opacity:1;fill-rule:nonzero;stroke:none"
         d="m 1333.71,993.047 c 1.61,-11.93 2.52,-24.731 2.52,-38.516 0,-38 -7.1,-80.726 -28.48,-134.16 L 1193.34,489.574 c 111.36,64.942 186.26,185.59 186.26,323.774 0,65.117 -16.63,126.355 -45.89,179.699" /><path
         id="path36"
         style="fill:#3f3c3c;fill-opacity:1;fill-rule:nonzero;stroke:none"
         d="m 1005.04,396.723 c -229.712,0 -416.61,186.894 -416.61,416.625 0,229.712 186.898,416.602 416.61,416.602 229.71,0 416.59,-186.89 416.59,-416.602 0,-229.731 -186.88,-416.625 -416.59,-416.625 z m 0,853.247 c -240.759,0 -436.634,-195.87 -436.634,-436.622 0,-240.785 195.875,-436.645 436.634,-436.645 240.74,0 436.65,195.86 436.65,436.645 0,240.752 -195.91,436.622 -436.65,436.622" /></g></g></svg>